<svg xmlns="http://www.w3.org/2000/svg" width="50" height="50" fill="none"><path fill="#fff" d="M0 0h50v50H0z"/><path d="M40.872 12.047c-.35-2.75-4.8-7.7-10.1-9.35s-10.55-.45-13.2 1-5.85 4.1-7.25 7.6-1.726 7.017.4 10.55c1.63 2.7 3.385 4.12 6.45 4.9 2.602.663 6.95.25 6.85-.6s-4.45-2.2-5.3-4.55-.75-3.7.2-5.9 2.75-3.3 4.3-3.85 3.8-.45 5.95.5 2.5 3.1 5.4 3.6 6.65-1.15 6.3-3.9z" fill="#2d9cdb"/><path d="M40.275 27.17c-2.55 4.55-11.75 17.85-13.2 19.95s-2.7 0-2.7 0-14.55-20.75-13.85-21.35 2 1.9 4.5 2.85 4.6 1 6.2.95 4.05-.95 4.05-.95c2.9-1.45 3.1-3.2 7.1-6s10.45 0 7.9 4.55z" fill="#25b869"/></svg>