<svg xmlns="http://www.w3.org/2000/svg" width="100" height="100" fill="none"><path d="M50 99.836c27.614 0 50-22.35 50-49.918S77.614 0 50 0 0 22.35 0 49.918s22.386 49.918 50 49.918z" fill="#fff"/><g fill-rule="evenodd"><path d="M70.62 29.524c.692 1.228.647 3.164.036 5.574-.72 2.837-2.495 4.874-4.253 5.074-.892 4.1-2.65 7.72-4.982 10.466 3.078 2.437 5.638 5.174 7.45 8.347 4.563 1.455 9.035 3.883 13.543 5.92 1.138.518.92.336 1.43 1.5 2.076 4.8 3.552 9.693 5.364 14.53C80.22 92.535 66.148 100 50.32 100c-15.847 0-30.4-7.438-39.4-19.076 2.095-4.455 3.8-9.865 6-14.557.6-1.273.4-1.073 1.676-1.628 4.344-1.9 8.443-4.046 13.16-5.528 2.086-3.564 4.727-6.374 7.996-8.3-2.45-2.773-4.27-6.474-5.2-10.72-1.858.036-3.825-2.064-4.6-5.083-.6-2.4-.647-4.346.036-5.574.364-.636.802-.955 1.266-1.055-2.732-9.73.492-16.485 7.414-20.54C48.34.59 60.664 1.23 68.086 11.484c3.48 4.8 4.044 11.948 2.514 18.04z" fill="#1a1617"/><path d="M50.118 3.146c-3.916.446-7.85 2.064-11.42 4.783-6.922 4.055-10.146 10.8-7.414 20.54 1.066-.227 2.26.727 2.832 1.8.128.255.255.655.2.937.055 1.282.22 2.564.5 3.746.1.382.8.782.7.2-.337-2.128-.073-4.628-.428-6.637l-.328-1.8c1.2-4.8 3.616-8.874 6.74-11.575 2.814 3.082 6.13 5.637 10.5 6.1 7.54.8 11.876 3.255 14.126 7.265-.355 2-.1 4.5-.428 6.637-.1.582.62.182.7-.2.282-1.182.2-2.455.255-3.737-.127-.455-.137-.982.1-1.373.865-1.4 2.77-2.22 3.825-.327 1.53-6.092.965-13.23-2.514-18.04-3.634-5.02-8.443-7.738-13.543-8.338h-4.444z" fill="#3d3d3d"/><path d="M30.6 28.805c-.2.173-.4.4-.583.718-.683 1.228-.647 3.164-.036 5.574.528 2.055 1.603 3.692 2.832 4.5.565.382 1.166.6 1.758.573.93 4.246 2.75 7.947 5.2 10.72-.3.873-.583 2.064-.838 3.255 3.27 5.056 7.186 8.002 11.384 8.002 4.426 0 8.525-3.255 11.894-8.792-.3-1.218-.592-2.2-.792-2.728 2.33-2.746 4.1-6.365 4.982-10.465.483-.055.965-.255 1.43-.564 1.23-.818 2.304-2.455 2.823-4.5.6-2.4.656-4.346-.036-5.574-.173-.3-.364-.546-.574-.718-1.075-.9-2.532-.118-3.25 1.046-.246.4-.237.918-.1 1.373-.055 1.282.027 2.555-.255 3.737-.1.382-.802.782-.7.2.328-2.128.073-4.628.428-6.638-2.25-4-6.585-6.456-14.126-7.265-4.372-.464-7.687-3.02-10.5-6.1-3.124 2.7-5.528 6.774-6.74 11.575l.328 1.8c.355 2 .1 4.5.428 6.638.1.582-.62.182-.7-.2-.282-1.182-.446-2.464-.5-3.746.046-.282-.082-.682-.2-.936-.574-1.082-1.767-2.037-2.832-1.8-.237.045-.464.154-.683.336z" fill="#f6d5b8"/><path d="M34.426 39.198a26.06 26.06 0 0 1-.6-5.037 27.88 27.88 0 0 1 .11-3.255 3.79 3.79 0 0 0-.29-.364c-.355-.373-.993-.855-1.566-.8-.428.027-.7.373-.893.7-.72 1.282-.237 3.437.155 4.746.337 1.118.93 2.282 1.803 3.137.337.336.792.682 1.284.882zm32.013 0a26.06 26.06 0 0 0 .6-5.037c.036-1.082-.01-2.173-.1-3.255a3.63 3.63 0 0 1 .291-.364c.355-.373.993-.855 1.567-.8.428.027.7.373.892.7.72 1.282.237 3.437-.155 4.746-.328 1.118-.93 2.282-1.803 3.137-.337.336-.792.682-1.284.882z" fill="#e6c6aa"/><path d="M39.772 50.946C33.597 68.25 46.785 84.48 49.8 100l-1.475-.046-19.9-24.94 5.683-4.446c-1.24-1.728-3.543-2.555-4.563-4.337.956-2.255.883-4.82 2.25-6.974 2.086-3.564 4.727-6.374 7.996-8.3zm22.705.564c2.614 2.2 4.8 4.673 6.393 7.474.237.073.464.155.692.227l.027.045c1.366 2.155 1.293 4.72 2.25 6.974-1.02 1.782-3.315 2.6-4.563 4.337l5.683 4.446-19.873 24.914a41.2 41.2 0 0 1-1.512.055C54.6 84.47 67.77 68.24 61.594 50.946c.3.182.592.364.883.564z" fill="#383032"/><path d="M61.42 50.637c.045-.055-4.317 4.9-10.893 4.9-4.58 0-10.73-4.62-10.73-4.6l-.2.8a15.93 15.93 0 0 0 3.916 3.3c2.13 1.273 4.545 2.064 7.168 2.5 2.523.418 5.246.5 8.087.382 1.2-1.264 2.36-2.8 3.433-4.565-.3-1.2-.592-2.2-.792-2.728z" fill="#e6c6aa"/><path d="M50.32 62.157c-4.2 0-8.115-2.946-11.384-8 .255-1.2.537-2.382.838-3.255-3.998 11.202.118 21.95 4.335 32.35 2.304 5.683 4.636 11.257 5.692 16.75h.52a56.23 56.23 0 0 0 1.248-.018c.984-5.065 3.05-10.22 5.173-15.448 4.38-10.802 9.016-21.977 4.854-33.633l.647.4-.82-.664c.2.527.492 1.5.792 2.728-1.075 1.764-2.222 3.3-3.433 4.565-2.587 2.72-5.446 4.228-8.46 4.228z" fill="#fff"/><path d="M50.373 63.093L45.1 71.486l1.776 2.555-2.77 9.238C46.4 88.953 48.733 94.517 49.79 100h.528l1.257-.018c.984-5.055 3.042-10.193 5.164-15.42.282-.764-3.005-10.402-3.005-10.402l1.776-3.12-5.137-7.947z" fill="#f23034"/><path d="M50.373 63.275l-8.215 11.13-3.497-8.092c.984 5.783 3.224 11.457 5.483 17.03l2.732-9.12-1.776-2.555 5.273-8.392zm8.27 11.293l-8.27-11.293 5.137 7.947-1.776 3.12s2.887 8.465 3.015 10.156c2.486-6.1 5.036-12.33 6.038-18.694l-4.144 8.765z" fill="#e6e6e6"/><path d="M52.022 21.26c-4.372-.464-7.687-3.02-10.5-6.1-3.124 2.7-5.528 6.774-6.74 11.575 2.23-3.42 3.68-7.8 6.694-10.247 4.07 8.347 18.28 5.274 24.672 12.04-2.25-4-6.585-6.456-14.126-7.265z" fill="#e6c6aa"/></g></svg>